HIERARCHY
ROOT Root
{
	OFFSET 0.00000 0.00000 0.00000
	CHANNELS 6 Xposition Yposition Zposition Zrotation Xrotation Yrotation
	JOINT Hip
	{
		OFFSET 0 0 0	
		CHANNELS 3 Zrotation Xrotation Yrotation
		JOINT Tummy
		{
			OFFSET 0 0.04 0	
			CHANNELS 3 Zrotation Xrotation Yrotation
			JOINT ChestBottom
			{
				OFFSET 0 0.194 0	
				CHANNELS 3 Zrotation Xrotation Yrotation
				JOINT ChestTop
				{
					OFFSET 0 0.166 0	
					CHANNELS 3 Zrotation Xrotation Yrotation
					JOINT LeftCollar
					{
						OFFSET 0 0.1 0	
						CHANNELS 3 Zrotation Xrotation Yrotation
						JOINT LeftUpperArm
						{
							OFFSET 0.156 -0.02 0.03	
							CHANNELS 3 Zrotation Xrotation Yrotation
							JOINT LeftForeArm
							{
								OFFSET 0.035 -0.27 -0.01	
								CHANNELS 3 Zrotation Xrotation Yrotation
								JOINT LeftHand
								{
									OFFSET 0.01 -0.27 0.01	
									CHANNELS 3 Zrotation Xrotation Yrotation
									End Site
									{
										OFFSET 0 -0.15 0
									}
								}
							}
						}
					}
					JOINT RightCollar
					{
						OFFSET 0 0.1 0	
						CHANNELS 3 Zrotation Xrotation Yrotation
						JOINT RightUpperArm
						{
							OFFSET -0.156 -0.02 0.03	
							CHANNELS 3 Zrotation Xrotation Yrotation
							JOINT RightForeArm
							{
								OFFSET -0.035 -0.27 -0.01	
								CHANNELS 3 Zrotation Xrotation Yrotation
								JOINT RightHand
								{
									OFFSET -0.01 -0.27 0.01	
									CHANNELS 3 Zrotation Xrotation Yrotation
									End Site
									{
										OFFSET 0 -0.15 0
									}
								}
							}
						}
					}
					JOINT Neck
					{
						OFFSET 0 0.1 0	
						CHANNELS 3 Zrotation Xrotation Yrotation
						JOINT Head
						{
							OFFSET 0 0.127 0.03	
							CHANNELS 3 Zrotation Xrotation Yrotation
							End Site
							{
								OFFSET 0 0.127 0.03
							}
						}
					}
				}
			}
		}
	}
	JOINT LeftHip
	{
		OFFSET 0 0 0	
		CHANNELS 3 Zrotation Xrotation Yrotation
		JOINT LeftThigh
		{
			OFFSET 0.088 -0.06 0	
			CHANNELS 3 Zrotation Xrotation Yrotation
			JOINT LeftLowerLeg
			{
				OFFSET 0 -0.39 0.02	
				CHANNELS 3 Zrotation Xrotation Yrotation
				JOINT LeftFootTop
				{
					OFFSET 0 -0.43 -0.02	
					CHANNELS 3 Zrotation Xrotation Yrotation
					JOINT LeftFootFront
					{
						OFFSET 0 -0.07 0.085	
						CHANNELS 3 Zrotation Xrotation Yrotation
						End Site
						{
							OFFSET 0 -0.005 0.09
						}
					}
				}
				JOINT LeftHeel
				{
					OFFSET 0 -0.43 -0.02	
					CHANNELS 3 Zrotation Xrotation Yrotation
					End Site
					{
						OFFSET 0 -0.075 -0.05
					}
				}
			}
		}
	}
	JOINT RightHip
	{
		OFFSET 0 0 0	
		CHANNELS 3 Zrotation Xrotation Yrotation
		JOINT RightThigh
		{
			OFFSET -0.088 -0.06 0	
			CHANNELS 3 Zrotation Xrotation Yrotation
			JOINT RightLowerLeg
			{
				OFFSET 0 -0.39 0.02	
				CHANNELS 3 Zrotation Xrotation Yrotation
				JOINT RightFootTop
				{
					OFFSET 0 -0.43 -0.02	
					CHANNELS 3 Zrotation Xrotation Yrotation
					JOINT RightFootFront
					{
						OFFSET 0 -0.07 0.085	
						CHANNELS 3 Zrotation Xrotation Yrotation
						End Site
						{
							OFFSET 0 -0.005 0.09
						}
					}
				}
				JOINT RightHeel
				{
					OFFSET 0 -0.43 -0.02	
					CHANNELS 3 Zrotation Xrotation Yrotation
					End Site
					{
						OFFSET 0 -0.075 -0.05
					}
				}
			}
		}
	}
}
MOTION
Frames: 14
Frame Time: 0.025
-0.009317 0.95857 0.014796 -0 0 -0 2.2647 -0.44953 -10.258 -0.98676 0.10625 0.61837 -0.98676 0.10625 0.61837 -0.82881 0.089966 0.51931 -0 0 -0 2.6958 -8.8224 10.686 0.11429 8.9574 -10.731 -1.0094 0.31674 -0.22652 -0 0 -0 0.97228 -0.5187 8.9653 0.087606 0.66504 2.0384 -0.22791 -0.24449 -0.71656 1.3421 0.10522 -0.22765 0.51229 0.20732 0.28941 2.2647 -0.44953 -10.258 -2.5662 0.25604 11.399 0.27736 -0.41594 0.35319 -0.72463 0.5178 -12.717 0.0073475 0.0015528 0.010285 -0 0 -0 2.2647 -0.44953 -10.258 -1.7684 -0.1399 6.6858 -0.33776 0.090159 6.5118 -1.3195 0.53581 -1.8471 -0.0097022 -0.52657 0.069016 -0 0 -0 
-0.0080896 0.95854 0.014876 -0 0 -0 2.2482 -0.45189 -9.9822 -0.98174 0.11204 0.47763 -0.98174 0.11204 0.47763 -0.8246 0.094668 0.40108 -0 0 -0 2.6397 -8.0069 10.961 0.048837 8.1427 -10.891 -0.98162 0.30488 -0.13422 -0 0 -0 0.97532 -0.52248 9.0876 0.061586 0.62309 2.0395 -0.18707 -0.19725 -0.84792 1.3331 0.096178 -0.10408 0.50785 0.20015 0.29469 2.2482 -0.45189 -9.9822 -2.5583 0.26461 11.092 0.28854 -0.40585 0.38491 -0.71728 0.51476 -12.706 0.0048484 0.00046801 0.0002814 -0 0 -0 2.2482 -0.45189 -9.9822 -1.7556 -0.12883 6.4116 -0.34038 0.08543 6.5131 -1.2867 0.59733 -2.164 0.010741 -0.61635 0.22904 -0 0 -0 
-0.0066996 0.95851 0.014982 -0 0 -0 2.2193 -0.45234 -9.9153 -0.96941 0.11674 0.44152 -0.96941 0.11674 0.44153 -0.81424 0.098562 0.37075 -0 0 -0 2.2666 -6.0986 10.756 0.016904 6.1964 -10.695 -0.96565 0.29309 -0.11903 -0 0 -0 0.97117 -0.52648 9.1204 -0.024955 0.51291 2.0351 -0.1011 -0.096143 -0.86088 1.3186 0.085498 -0.069048 0.50376 0.19256 0.29934 2.2193 -0.45234 -9.9153 -2.5312 0.26909 11.021 0.29781 -0.37741 0.38031 -0.71969 0.48923 -12.697 0.0085263 0.0031354 0.0014594 -0 0 -0 2.2193 -0.45234 -9.9153 -1.7267 -0.12013 6.346 -0.3448 0.080801 6.5132 -1.28 0.67598 -2.8807 0.039837 -0.75957 0.33193 -0 0 -0 
-0.0051956 0.95847 0.015092 -0 0 -0 2.1865 -0.45184 -9.9038 -0.95468 0.12094 0.43366 -0.95468 0.12094 0.43366 -0.80187 0.10208 0.36414 -0 0 -0 1.6354 -3.2006 9.7807 0.026489 3.2317 -9.7573 -0.95223 0.28237 -0.11767 -0 0 -0 0.96427 -0.52951 9.1266 -0.40747 0.17842 1.9317 0.28776 0.21892 -0.75117 1.3021 0.074286 -0.058477 0.49973 0.18461 0.30325 2.1865 -0.45184 -9.9038 -2.4892 0.28423 11.004 0.30098 -0.31224 0.27055 -0.72629 0.41643 -12.581 0.010467 0.005116 0.0023041 -0 0 -0 2.1865 -0.45184 -9.9038 -1.6909 -0.11024 6.3342 -0.34876 0.07582 6.5143 -1.2973 0.75145 -3.9957 0.015306 -0.87794 0.16984 -0 0 -0 
-0.0036495 0.95844 0.015189 -0 0 -0 2.1559 -0.44865 -9.898 -0.94144 0.12264 0.428 -0.94144 0.12264 0.428 -0.79075 0.10349 0.35938 -0 0 -0 1.3718 -1.3153 8.3396 -0.080469 1.3301 -8.3188 -0.93623 0.27551 -0.11705 -0 0 -0 0.95884 -0.53015 9.1315 -1.6533 -0.76897 1.3977 1.5305 1.1266 -0.57331 1.2858 0.065304 -0.04903 0.49458 0.17683 0.30794 2.1559 -0.44865 -9.898 -2.4362 0.32418 10.933 0.27656 -0.23972 -0.26997 -0.72303 0.30671 -11.975 0.0091108 0.0050753 0.0022975 -0 0 -0 2.1559 -0.44865 -9.898 -1.6559 -0.10361 6.3247 -0.35101 0.072336 6.5169 -1.3269 0.78568 -5.2969 -0.030156 -0.88672 -0.14372 -0 0 -0 
-0.0021457 0.9584 0.015262 -0 0 -0 2.1295 -0.44274 -9.8928 -0.93133 0.12076 0.42175 -0.93133 0.12076 0.42175 -0.78225 0.1019 0.35414 -0 0 -0 1.3724 -0.76758 6.9722 -0.18872 0.79077 -6.9436 -0.91569 0.27201 -0.11587 -0 0 -0 0.95609 -0.52781 9.1415 -4.1115 -2.5676 0.12424 3.9451 2.9304 -0.13343 1.2711 0.059709 -0.037958 0.48848 0.16944 0.31383 2.1295 -0.44274 -9.8928 -2.3934 0.38557 10.523 0.22413 -0.2304 -1.2811 -0.69179 0.22682 -10.558 0.0062652 0.0020825 0.0014963 -0 0 -0 2.1295 -0.44274 -9.8928 -1.6278 -0.10323 6.3146 -0.34985 0.071538 6.517 -1.3217 0.73025 -6.5019 -0.059629 -0.74118 -0.26281 -0 0 -0 
-0.00076459 0.95837 0.015306 -0 0 -0 2.1064 -0.43678 -9.8884 -0.92389 0.11751 0.41599 -0.92389 0.11751 0.41599 -0.77601 0.099158 0.3493 -0 0 -0 1.4069 -0.67571 6.0395 -0.25306 0.7063 -6.003 -0.89152 0.26946 -0.11461 -0 0 -0 0.95611 -0.52477 9.1518 -7.1692 -4.8218 -1.5398 6.8516 5.3352 0.070486 1.2594 0.055766 -0.027208 0.48303 0.16258 0.31983 2.1064 -0.43678 -9.8884 -2.3915 0.43104 9.3815 0.20682 -0.27794 -1.7614 -0.65577 0.21131 -8.9393 0.0031033 -0.0013048 2.2866e-05 -0 0 -0 2.1064 -0.43678 -9.8884 -1.6077 -0.10707 6.3094 -0.34553 0.072097 6.5124 -1.2519 0.58344 -7.3312 -0.048216 -0.43102 -0.23193 -0 0 -0 
0.0004328 0.95833 0.015322 -0 0 -0 2.0831 -0.43254 -9.8847 -0.91622 0.11517 0.41129 -0.91622 0.11517 0.41129 -0.76957 0.097182 0.34536 -0 0 -0 1.4456 -0.65873 5.4416 -0.31019 0.69417 -5.3994 -0.86732 0.26473 -0.11288 -0 0 -0 0.95572 -0.52117 9.1595 -10.081 -7.0178 -2.9966 9.546 7.779 -0.33485 1.2488 0.052074 -0.018179 0.47889 0.15676 0.32498 2.0831 -0.43254 -9.8847 -2.4103 0.43479 7.7911 0.23942 -0.30181 -1.3151 -0.64081 0.21708 -7.7985 0.0026646 -0.0022535 -0.00064513 -0 0 -0 2.0831 -0.43254 -9.8847 -1.589 -0.11187 6.3078 -0.34187 0.072191 6.5085 -1.1438 0.39184 -7.7367 0.013428 -0.014636 -0.16465 -0 0 -0 
0.0014126 0.95829 0.015319 -0 0 -0 2.0572 -0.43163 -9.8802 -0.90609 0.11626 0.4064 -0.90609 0.11626 0.4064 -0.76106 0.098093 0.34125 -0 0 -0 1.4799 -0.70401 5.0384 -0.35882 0.73936 -4.9905 -0.84737 0.25577 -0.11008 -0 0 -0 0.95249 -0.52017 9.1666 -12.789 -8.8297 -4.08 12.056 9.854 -1.1578 1.2367 0.045153 -0.0094702 0.47534 0.15059 0.32958 2.0572 -0.43163 -9.8802 -2.4138 0.42452 6.4548 0.28339 -0.30101 -0.70084 -0.64764 0.22187 -7.0814 0.0055092 0.00033624 -0.00078827 -0 0 -0 2.0572 -0.43163 -9.8802 -1.5661 -0.11122 6.3056 -0.34151 0.07043 6.5065 -1.0306 0.21385 -7.8141 0.043891 -0.055946 -0.097868 -0 0 -0 
0.0021761 0.95826 0.015305 -0 0 -0 2.0293 -0.43396 -9.8751 -0.89392 0.12059 0.40117 -0.89392 0.12059 0.40117 -0.75084 0.10172 0.33685 -0 0 -0 1.4704 -0.83779 4.841 -0.35619 0.86747 -4.7866 -0.83228 0.24344 -0.10671 -0 0 -0 0.94697 -0.52268 9.174 -15.737 -10.464 -4.8818 14.854 11.734 -2.1218 1.2228 0.034627 -0.00053113 0.4717 0.14351 0.33407 2.0293 -0.43396 -9.8751 -2.3944 0.44002 5.5855 0.30829 -0.33891 -0.26481 -0.65753 0.24995 -6.6534 0.008167 0.0040217 -0.00073939 -0 0 -0 2.0293 -0.43396 -9.8751 -1.539 -0.10324 6.3021 -0.34397 0.068234 6.5054 -0.94548 0.094827 -7.7383 0.022052 -0.042879 0.011635 -0 0 -0 
0.0027599 0.95822 0.015286 -0 0 -0 2.0026 -0.43689 -9.8702 -0.88147 0.12544 0.39603 -0.88147 0.12544 0.39603 -0.74037 0.10578 0.33254 -0 0 -0 1.4284 -1.0065 4.9642 -0.31289 1.0307 -4.9038 -0.81924 0.2317 -0.10305 -0 0 -0 0.94024 -0.52584 9.1815 -20.128 -13.025 -5.6568 19.118 14.494 -3.5706 1.2074 0.023311 0.0083397 0.4669 0.13607 0.33857 2.0026 -0.43689 -9.8702 -2.3674 0.51644 5.0572 0.30152 -0.46806 0.14705 -0.64659 0.31533 -6.5414 0.009534 0.0045635 6.1995e-05 -0 0 -0 2.0026 -0.43689 -9.8702 -1.5123 -0.093338 6.2989 -0.34555 0.067703 6.5043 -0.90466 0.048742 -7.6185 0.0083689 -0.013292 0.054 -0 0 -0 
0.0032211 0.95818 0.015274 -0 0 -0 1.9783 -0.436 -9.8655 -0.87036 0.12739 0.39107 -0.87036 0.12739 0.39107 -0.73104 0.1074 0.32837 -0 0 -0 1.4512 -1.0853 5.1975 -0.33591 1.1137 -5.1311 -0.80481 0.22438 -0.099237 -0 0 -0 0.93418 -0.52626 9.1887 -27.885 -17.82 -7.1915 26.796 19.38 -6.5246 1.1925 0.014799 0.016953 0.4614 0.12901 0.34301 1.9783 -0.436 -9.8655 -2.3813 0.63435 4.8295 0.30054 -0.6488 0.49965 -0.60431 0.38462 -6.6697 0.0087973 0.0027805 0.0010167 -0 0 -0 1.9783 -0.436 -9.8655 -1.489 -0.089409 6.296 -0.34368 0.06998 6.503 -0.89961 0.031744 -7.5651 0.015702 0.017612 0.054788 -0 0 -0 
0.0036322 0.95815 0.015276 -0 0 -0 1.9557 -0.43025 -9.8606 -0.86023 0.12553 0.38608 -0.86023 0.12553 0.38608 -0.72253 0.10583 0.32418 -0 0 -0 1.4724 -1.0881 5.3087 -0.36465 1.1236 -5.2371 -0.78787 0.22198 -0.095539 -0 0 -0 0.92892 -0.52338 9.1956 -39.788 -24.188 -10.83 38.753 25.682 -11.775 1.1786 0.010667 0.025516 0.45596 0.12315 0.34745 1.9557 -0.43025 -9.8606 -2.6901 0.47761 4.9366 0.61107 -0.5684 0.48228 -0.56171 0.43208 -6.7613 0.0065674 0.00093786 0.00044934 -0 0 -0 1.9557 -0.43025 -9.8606 -1.4686 -0.094303 6.2929 -0.33917 0.074952 6.5017 -0.88326 0.045256 -7.5112 -0.0057827 0.021213 0.0059009 -0 0 -0 
0.0040727 0.95811 0.015291 -0 0 -0 1.9322 -0.42243 -9.8552 -0.8495 0.1223 0.38082 -0.8495 0.1223 0.38082 -0.71352 0.10311 0.31977 -0 0 -0 1.467 -1.0685 5.3366 -0.37265 1.1082 -5.2598 -0.77 0.22199 -0.092741 -0 0 -0 0.92309 -0.51873 9.2028 -53.091 -28.957 -16.647 52.012 30.723 -17.783 1.1639 0.0087192 0.034536 0.45035 0.1183 0.35214 1.9322 -0.42243 -9.8552 -3.9645 -0.5797 5.3204 1.9822 0.3385 0.10141 -0.53887 0.45005 -6.7915 0.0049807 0.00060382 0.00039854 -0 0 -0 1.9322 -0.42243 -9.8552 -1.4479 -0.10372 6.2895 -0.33526 0.079826 6.5006 -0.88567 0.067569 -7.5063 -0.019993 0.033053 0.0091083 -0 0 -0 
